<?xml version="1.0" encoding="UTF-8"?>
<svg fill="none" viewBox="0 0 779 182" xmlns="http://www.w3.org/2000/svg">
<path d="m123.06 131.97c-7.658 8.123-16.536 14.101-28.256 17.637-17.793 5.37-34.592 1.209-43.529-8.309-4.52-4.559-7.0925-10.191-7.7141-15.903 33.805 4.724 69.088 0.873 84.167-16.491 9.848-11.345 12.279-29.61 1.015-44.633-9.831-13.116-32.555-21.871-59.554-19.143-35.407 3.5778-67.237 27.752-69.019 66.77-1.8197 39.888 29.934 69.482 73.411 69.482 27.831 0 50.901-9.366 62.479-21.302-3.847-9.659-7.89-19.039-13.004-28.108h3e-3zm-56.857-58.084c11.664-4.3653 27.738-3.8611 31.077 6.5582 2.8138 8.7892-5.3453 18.711-22.424 21.664-8.7499 1.512-21.281 1.806-31.647-0.85 0.7562-6.6237 6.3121-21.135 22.994-27.376v0.0035z" fill="#F48120"/>
<path d="m80.995 8.0189c7.5448 4.0026 13.374 8.7478 17.797 13.299 4.2196 4.348 9.9586 11.763 12.103 17.589-1.039 0.1382-25.704 3.2429-49.298-6.5893-11.965-4.9834-23.553-15.12-26.108-28.377 4.9033-1.6439 11.474-2.4071 16.578-2.5142 8.2631-0.17268 18.66 1.1431 28.929 6.5928zm218.97 36.607c14.503 0.5007 28.678 3.7678 41.485 13.938l-7e-3 0.0069c11.506 9.138 18.491 21.95 18.491 44.474l-0.349 74.858-38.995-0.01-0.362-20.756c-5.149 9.542-23.087 24.258-44.872 24.258-30.128 0-47.455-16.719-49.889-35.002-2.583-19.391 7.234-40.323 33.383-47.903 17.328-5.0249 39.679-5.7777 60.521-2.7628 0-10.046-7.223-20.331-22.61-22.472-12.811-1.782-28.273 0.1519-41.699 6.869-2.102 1.0533-4.292 2.2828-6.277 3.5571l15.231-35.184c9.14-2.1032 22.2-4.348 35.949-3.8714zm-35.472 95.566c3.339 10.419 19.412 10.923 31.077 6.558l-4e-3 3e-3c16.682-6.24 22.238-20.752 22.994-27.376-10.363-2.655-22.894-2.362-31.644-0.849-17.075 2.953-25.238 12.875-22.423 21.664zm352.67-95.566c14.503 0.5008 28.677 3.7678 41.485 13.938l-4e-3 0.0069c11.506 9.138 18.491 21.95 18.491 44.475l-0.349 74.858-38.995-0.01-0.362-20.756c-5.149 9.542-23.087 24.257-44.872 24.257-30.128 0-47.455-16.718-49.889-35.001-2.583-19.391 7.234-40.323 33.383-47.904 17.328-5.0248 39.679-5.7777 60.521-2.7628 0-10.046-7.223-20.331-22.61-22.472-12.811-1.782-28.031 0.6631-41.698 6.869-6.109 2.7732-12.749 8.1607-12.749 8.1607s0.059-26.74 0.076-34.176c10.542-3.16 16.157-4.4689 21.623-5.612 9.181-1.9202 22.199-4.348 35.949-3.8714zm-35.473 95.566c3.339 10.419 19.413 10.923 31.077 6.558l-3e-3 3e-3c16.681-6.24 22.237-20.752 22.994-27.376-10.363-2.655-22.894-2.362-31.644-0.849-17.075 2.953-25.238 12.874-22.424 21.664zm-83.694 37.46h35.853v-129.22h-39.43v71.754c0 13.734-10.746 25.946-28.18 28.122-13.695 1.709-21.72-7.052-21.72-28.119v-71.757h-38.297v82.819c0 31.71 22.81 50.797 47.765 50.711 15.687-0.059 31.478-7.156 43.705-24.651l0.304 20.341zm-285.98-129.22-36.533 88.711c-4.817-13.963-15.252-34.687-27.61-51.986-3.07 12.236-8.85 26.654-18.118 39 9.14 13.466 18.639 35.872 23.929 53.734h42.13l57.158-129.46h-40.956v0.0035zm174.8 100.55c10.211 0 18.491 7.255 18.491 16.207 0 8.951-8.277 16.207-18.491 16.207s-18.491-7.256-18.491-16.207c0-8.952 8.277-16.207 18.491-16.207z" clip-rule="evenodd" fill="#72BE44" fill-rule="evenodd"/>
<path d="m778.7 35.215c-0.214 10.319-0.042 20.386-0.042 30.747-30.649-11.683-62.603 10.267-93.255-1.416 0.217-10.316-0.259-20.289-0.042-30.608 30.649 11.683 62.69-10.409 93.339 1.2743v0.0035z" fill="#FFD500"/>
<path d="m685.66 2.2966c30.649 11.683 62.344-10.064 92.993 1.6197-0.214 10.319 0.259 20.98 0.042 31.299-30.649-11.683-62.69 10.409-93.339-1.2744 0.218-10.316 0.087-21.325 0.304-31.644z" fill="#005BBB"/>
<path d="m778.66 3.7987c-0.145 6.8794 0.404 13.873 0.259 20.752s-0.594 13.759-0.431 20.635c0.172 7.3076 0.086 13.662 0.172 20.776-30.652-11.683-62.582 10.302-93.231-1.3814 0.145-6.8794-0.145-14.187 0-21.066 0.134-6.5375 0.162-13.814 0-21.066-0.152-6.6998 0.2-13.151 0.345-20.03 30.649 11.683 62.237-10.302 92.886 1.3814z" fill="url(#a)" opacity=".7" style="mix-blend-mode:multiply"/>
<defs>
<linearGradient id="a" x1="778.24" x2="685.89" y1="32.385" y2="36.321" gradientUnits="userSpaceOnUse">
<stop stop-color="#D3D3D3" offset="0"/>
<stop stop-color="#E0E0DF" offset=".06"/>
<stop stop-color="#F6F6F4" offset=".19"/>
<stop stop-color="#FFFFFC" offset=".27"/>
<stop stop-color="#E0E0E0" offset=".65"/>
<stop stop-color="#E4E4E4" offset=".81"/>
<stop stop-color="#F0F1F1" offset=".99"/>
<stop stop-color="#F1F2F2" offset="1"/>
</linearGradient>
</defs>
</svg>