<svg xmlns="http://www.w3.org/2000/svg" width="19" height="23" viewBox="0 0 19 23">
  <g fill="none" fill-rule="evenodd">
    <path fill="#69BE28" d="M9.15600976,18.0304346 C9.7954733,18.0953691 10.2623883,18.6751882 10.1980865,19.3242051 C10.1334616,19.973878 9.5628236,20.4474406 8.92271382,20.3821782 C8.28325028,20.3169157 7.81633526,19.7374246 7.88096018,19.0880797 C7.94493884,18.4387348 8.5162231,17.9651722 9.15600976,18.0304346 L9.15600976,18.0304346 Z M19,9.2 L18.9987075,9.2 C9.64974411,9.20295157 2.98077597,12.8064878 6.02493261,22.1783711 L6.02557886,22.1816506 L6.02622511,22.1816506 C15.215565,25.4067302 18.8620258,18.6906019 19,9.20327952 L19,9.2 Z"/>
    <path fill="#D10074" d="M7.26892895,5.88654468 C6.84227592,5.93014149 6.53134171,6.31633109 6.57429551,6.74937099 C6.61724931,7.1824109 6.99774303,7.49832506 7.42407551,7.45472825 C7.85072854,7.41113145 8.16166276,7.02494184 8.11902951,6.59190194 C8.07607571,6.15886204 7.69558199,5.84294788 7.26892895,5.88654468 L7.26892895,5.88654468 Z M0.706293706,0 L0.707255359,0 C6.93972335,0.00162674644 11.3857621,2.40433124 9.35635536,8.65201364 L9.35571426,8.65429108 L9.35539371,8.65461643 C3.22902801,10.8041992 0.798291768,6.32706762 0.706293706,0.00195209573 L0.706293706,0 Z"/>
  </g>
</svg>
