<svg xmlns="http://www.w3.org/2000/svg" width="144" height="35" viewBox="0 0 144 35"><g fill="none" fill-rule="evenodd"><path fill="#4FB748" d="M131.573 22.67c.783.08 1.354.79 1.275 1.588-.08.8-.777 1.38-1.56 1.3-.783-.08-1.354-.793-1.275-1.59.08-.797.777-1.378 1.56-1.3v.002zm12.044-10.846h-.002c-11.437.005-19.597 4.43-15.873 15.94v.003l.002.002c11.243 3.96 15.704-4.29 15.873-15.941v-.005z"/><path fill="#EC008B" d="M129.53 7.33c-.525.055-.91.533-.856 1.07.053.535.522.926 1.048.872.526-.054.91-.532.857-1.068-.054-.536-.523-.927-1.05-.873zM121.438.044c7.688.003 13.17 2.977 10.668 10.71v.004c-7.556 2.662-10.554-2.88-10.668-10.71V.042z"/><path fill="#FFF" d="M2.982 19.205v9.75h-1.7v-7.6c0-1.2.093-2.532-.376-3.233 1.94-.918 6.08-1.47 7.8.304 3.366-2.287 8.06-.886 8.01 2.58v7.95H15.05v-7.633c-.002-1.006-.56-1.664-1.178-2.05-1.194-.74-3.28-.198-4.266.495.127.657.235 1.37.236 2.122l.007 7.065h-1.7v-7.807c0-2.06-2.625-3.005-5.168-1.943m21.68-.368c2.254 0 4.08 1.932 4.08 4.316 0 2.383-1.826 4.316-4.08 4.316-2.252 0-4.078-1.934-4.078-4.317 0-2.384 1.826-4.316 4.08-4.316m-.002-1.575c3.194 0 5.783 2.638 5.783 5.89 0 3.254-2.59 5.892-5.782 5.892-3.194 0-5.782-2.638-5.782-5.89 0-3.254 2.59-5.892 5.783-5.892m16.235-3.625h1.635v13.958l.254.656c-1.53.65-2.733.793-4.688.793-3.17 0-5.74-2.617-5.74-5.845 0-3.228 2.57-5.845 5.74-5.845 1.015 0 1.97.27 2.798.742v-4.458zm-2.8 5.28c.965 0 1.968.332 2.8.948v7.193c-.85.34-1.87.427-2.8.422-2.235 0-4.047-1.917-4.047-4.282s1.813-4.282 4.05-4.282zm8.888.325v9.765h-1.634v-10.03L44.944 18c4.182-1.405 8.876-.98 9.43 2.83.053.354.042.655.05 1.05v7.127h-1.633v-7.192c.037-2.996-3.234-3.506-5.804-2.573M60.21 22.67c1.56 0 2.827 1.073 2.827 2.397 0 1.325-1.266 2.398-2.827 2.398-1.56 0-2.827-1.073-2.827-2.398 0-1.323 1.266-2.398 2.827-2.398m-3.52-4.2l.678 1.396c2.13-1.305 5.942-1.997 5.585 2.32-.767-.628-1.784-1.008-2.9-1.008-2.388 0-4.325 1.74-4.325 3.89 0 2.147 1.937 3.888 4.324 3.888 1.123 0 2.146-.384 2.915-1.017.053.38.126.756.28 1.104.557-.163 1.114-.328 1.67-.492-.31-.928-.376-1.965-.406-3.017.04-1.384.08-2.523.122-3.907.143-4.84-5.08-5.274-7.94-3.157M84.73 23.31c-1.135 0-2.06.856-2.06 1.91 0 1.19.864 1.93 2.252 1.93 1.292 0 2.23-.83 2.23-1.975 0-1.08-.974-1.865-2.315-1.865h-.107zm31.286 0c-1.136 0-2.06.856-2.06 1.91 0 1.19.863 1.93 2.252 1.93 1.29 0 2.23-.83 2.23-1.975 0-1.08-.975-1.865-2.315-1.865h-.107zm-31.52 6.366c-2.546 0-4.466-1.86-4.466-4.324 0-2.634 2.003-4.545 4.764-4.545.832 0 1.507.166 2.267.583-.06-1.4-.673-1.926-2.18-1.926-.792 0-1.462.212-2.758.873l-.474.242-.96-2.214.372-.227c1.198-.726 2.586-1.11 4.01-1.11 2.905 0 4.638 1.682 4.638 4.5v5.017c0 .884.06 1.265.286 1.854l.205.53-2.456.6-.142-.444c-.04-.122-.066-.19-.087-.244-.014-.04-.028-.074-.04-.11-1.016.687-1.86.944-2.98.944zm11.472 0c-1.606 0-2.852-.43-4.303-1.49l-.394-.286 1.467-2.12.406.254c1.25.785 1.988 1.05 2.932 1.05 1.187 0 2.015-.458 2.015-1.113 0-.39 0-.872-2.25-1.37-2.806-.643-4.167-1.865-4.167-3.737 0-2.213 2.03-3.882 4.722-3.882 1.41 0 2.59.427 3.942 1.425l.385.283-1.473 2.202-.422-.31c-1.17-.857-1.773-1.008-2.604-1.008-1.077 0-1.888.488-1.888 1.136 0 .397 0 .808 2.054 1.328 2.694.677 4.363 1.564 4.363 3.888 0 2.208-1.967 3.75-4.785 3.75zm11.277 0c-2.39 0-3.997-1.738-3.997-4.324v-5.468h-1.812v-2.548h1.812V13.91h2.642v3.424h3.816v2.548h-3.816v5.357c0 1.126.562 1.798 1.504 1.798.434 0 .8-.143 1.484-.897l.39-.427 1.65 2.002-.304.32c-1.098 1.164-2.075 1.64-3.37 1.64zm8.533 0c-2.546 0-4.465-1.86-4.465-4.324 0-2.634 2.003-4.545 4.764-4.545.832 0 1.507.166 2.267.583-.062-1.4-.674-1.926-2.182-1.926-.79 0-1.46.212-2.758.873l-.473.242-.96-2.214.372-.227c1.2-.726 2.586-1.11 4.012-1.11 2.903 0 4.636 1.682 4.636 4.5v5.017c0 .883.06 1.264.287 1.854l.204.53-2.453.6-.142-.443c-.04-.123-.067-.19-.087-.244-.015-.04-.028-.074-.04-.11-1.017.687-1.86.944-2.98.944zm-38.37.282l-5.784-6.88v6.288h-2.812v-16.56h2.812v6.108l5.446-6.645 2.24 1.63-5.786 7.006 6.14 7.258-2.256 1.796z"/></g></svg>