<?xml version="1.0" standalone="no"?>
<!DOCTYPE svg PUBLIC "-//W3C//DTD SVG 1.1//EN"
 "http://www.w3.org/Graphics/SVG/1.1/DTD/svg11.dtd">

<svg version="1.1" xmlns="http://www.w3.org/2000/svg"
  xmlns:xlink="http://www.w3.org/1999/xlink">
<!-- automatically generated by aafigure -->
<g>
    <circle cx="378.0" cy="14.0" r="7.0" stroke="#000000" stroke-width="2" fill="#000000" />
    <line x1="336.0" y1="14.0" x2="378.0" y2="14.0" stroke="#000000" stroke-width="2" />
</g>
<g>
    <circle cx="378.0" cy="14.0" r="7.0" stroke="#000000" stroke-width="2" fill="#000000" />
    <circle cx="546.0" cy="14.0" r="7.0" stroke="#000000" stroke-width="2" fill="#000000" />
    <line x1="378.0" y1="14.0" x2="546.0" y2="14.0" stroke="#000000" stroke-width="2" />
</g>
<g>
    <circle cx="546.0" cy="14.0" r="7.0" stroke="#000000" stroke-width="2" fill="#000000" />
    <line x1="644.0" y1="14.0" x2="623.0" y2="21.0" stroke="#000000" stroke-width="2" />
    <line x1="644.0" y1="14.0" x2="623.0" y2="7.0" stroke="#000000" stroke-width="2" />
    <line x1="546.0" y1="14.0" x2="644.0" y2="14.0" stroke="#000000" stroke-width="2" />
</g>
<path d="M336.0,14.0 C319.174094048,14.0 319.897712198,44.1022878016 308.0,56.0" fill="none" stroke="#000000" stroke-width="2" />
<path d="M392.0,14.0 C392.0,14.0 399.13003221,70.0 420.0,70.0" fill="none" stroke="#000000" stroke-width="2" />
<path d="M532.0,14.0 C532.0,14.0 524.86996779,70.0 504.0,70.0" fill="none" stroke="#000000" stroke-width="2" />
<line x1="308.0" y1="56.0" x2="280.0" y2="84.0" stroke="#000000" stroke-width="2" />
<g>
    <circle cx="462.0" cy="70.0" r="7.0" stroke="#000000" stroke-width="2" fill="#000000" />
    <line x1="420.0" y1="70.0" x2="462.0" y2="70.0" stroke="#000000" stroke-width="2" />
</g>
<g>
    <circle cx="462.0" cy="70.0" r="7.0" stroke="#000000" stroke-width="2" fill="#000000" />
    <line x1="462.0" y1="70.0" x2="504.0" y2="70.0" stroke="#000000" stroke-width="2" />
</g>
<line x1="280.0" y1="84.0" x2="252.0" y2="126.0" stroke="#000000" stroke-width="2" />
<g>
    <circle cx="238.0" cy="126.0" r="7.0" stroke="#000000" stroke-width="2" fill="#000000" />
    <circle cx="434.0" cy="126.0" r="7.0" stroke="#000000" stroke-width="2" fill="#000000" />
    <line x1="238.0" y1="126.0" x2="434.0" y2="126.0" stroke="#000000" stroke-width="2" />
</g>
<g>
    <circle cx="434.0" cy="126.0" r="7.0" stroke="#000000" stroke-width="2" fill="#000000" />
    <circle cx="518.0" cy="126.0" r="7.0" stroke="#000000" stroke-width="2" fill="#000000" />
    <line x1="434.0" y1="126.0" x2="518.0" y2="126.0" stroke="#000000" stroke-width="2" />
</g>
<g>
    <circle cx="518.0" cy="126.0" r="7.0" stroke="#000000" stroke-width="2" fill="#000000" />
    <line x1="588.0" y1="126.0" x2="567.0" y2="133.0" stroke="#000000" stroke-width="2" />
    <line x1="588.0" y1="126.0" x2="567.0" y2="119.0" stroke="#000000" stroke-width="2" />
    <line x1="518.0" y1="126.0" x2="588.0" y2="126.0" stroke="#000000" stroke-width="2" />
</g>
<line x1="252.0" y1="126.0" x2="294.0" y2="182.0" stroke="#000000" stroke-width="2" />
<path d="M420.0,126.0 C420.0,126.0 412.86996779,182.0 392.0,182.0" fill="none" stroke="#000000" stroke-width="2" />
<line x1="504.0" y1="126.0" x2="476.0" y2="168.0" stroke="#000000" stroke-width="2" />
<g>
    <circle cx="350.0" cy="182.0" r="7.0" stroke="#000000" stroke-width="2" fill="#000000" />
    <line x1="294.0" y1="182.0" x2="350.0" y2="182.0" stroke="#000000" stroke-width="2" />
</g>
<g>
    <circle cx="350.0" cy="182.0" r="7.0" stroke="#000000" stroke-width="2" fill="#000000" />
    <line x1="350.0" y1="182.0" x2="392.0" y2="182.0" stroke="#000000" stroke-width="2" />
</g>
<line x1="476.0" y1="168.0" x2="448.0" y2="196.0" stroke="#000000" stroke-width="2" />
<line x1="294.0" y1="182.0" x2="294.0" y2="238.0" stroke="#000000" stroke-width="2" />
<path d="M448.0,196.0 C436.102287802,207.897712198 436.825905952,238.0 420.0,238.0" fill="none" stroke="#000000" stroke-width="2" />
<g>
    <circle cx="350.0" cy="238.0" r="7.0" stroke="#000000" stroke-width="2" fill="#000000" />
    <line x1="294.0" y1="238.0" x2="350.0" y2="238.0" stroke="#000000" stroke-width="2" />
</g>
<g>
    <circle cx="350.0" cy="238.0" r="7.0" stroke="#000000" stroke-width="2" fill="#000000" />
    <line x1="350.0" y1="238.0" x2="420.0" y2="238.0" stroke="#000000" stroke-width="2" />
</g>
<text x="0.0" y="23.8" font-family="monospace" font-size="28.0" fill="#000000" >
  stable
</text>
<text x="0.0" y="79.8" font-family="monospace" font-size="28.0" fill="#000000" >
  hotfix
</text>
<text x="0.0" y="135.8" font-family="monospace" font-size="28.0" fill="#000000" >
  default
</text>
<text x="0.0" y="191.8" font-family="monospace" font-size="28.0" fill="#000000" >
  feature
</text>
<text x="0.0" y="247.8" font-family="monospace" font-size="28.0" fill="#000000" >
  another
</text>
</svg>
