<?xml version="1.0" encoding="UTF-8" standalone="no"?>
<!-- Created with Inkscape (http://www.inkscape.org/) -->
<svg
   xmlns:dc="http://purl.org/dc/elements/1.1/"
   xmlns:cc="http://web.resource.org/cc/"
   xmlns:rdf="http://www.w3.org/1999/02/22-rdf-syntax-ns#"
   xmlns:svg="http://www.w3.org/2000/svg"
   xmlns="http://www.w3.org/2000/svg"
   xmlns:sodipodi="http://sodipodi.sourceforge.net/DTD/sodipodi-0.dtd"
   xmlns:inkscape="http://www.inkscape.org/namespaces/inkscape"
   version="1.0"
   id="Layer_1"
   width="250"
   height="250"
   xml:space="preserve"
   sodipodi:version="0.32"
   inkscape:version="0.45.1"
   sodipodi:docname="droplets.svg"
   sodipodi:docbase="/home/oxymoron/waste/selenic/public_html/hg-logo"
   inkscape:output_extension="org.inkscape.output.svg.inkscape">

  <metadata id="metadata6845">
    <rdf:RDF>
      <cc:Work rdf:about="">
        <dc:format>image/svg+xml</dc:format>
        <dc:type rdf:resource="http://purl.org/dc/dcmitype/StillImage" />
        <dc:title>Mercurial &quot;droplets&quot; logo</dc:title>
        <dc:creator><cc:Agent><dc:title>Cali Mastny and Matt Mackall</dc:title></cc:Agent></dc:creator>
        <cc:license rdf:resource="http://creativecommons.org/licenses/GPL/2.0/" />
        <dc:date>Feb 12 2008</dc:date>
      </cc:Work>
      <cc:License rdf:about="http://creativecommons.org/licenses/GPL/2.0/">
        <cc:permits rdf:resource="http://web.resource.org/cc/Reproduction" />
        <cc:permits rdf:resource="http://web.resource.org/cc/Distribution" />
        <cc:requires rdf:resource="http://web.resource.org/cc/Notice" />
        <cc:permits rdf:resource="http://web.resource.org/cc/DerivativeWorks" />
        <cc:requires rdf:resource="http://web.resource.org/cc/ShareAlike" />
        <cc:requires rdf:resource="http://web.resource.org/cc/SourceCode" />
      </cc:License>
    </rdf:RDF>
  </metadata>

<g transform="scale(2) matrix(0.9351326,0,0,0.9351326,150.39508,-1.251766)"
   id="g4503" style="opacity:1">
  <path
     d="M -45.749655,92.691592 C -25.709638,59.370739 -49.98206,5.3291313 -94.363693,10.819389 C -134.46337,15.776665 -135.10949,57.983708 -99.76917,68.010455 C -69.186498,76.695132 -93.451029,96.093536 -92.742037,109.01138 C -92.030055,121.92728 -66.155038,126.61324 -45.749655,92.691592 z "
     style="fill:#1b1a1b"
     id="path2339" /><circle
     cx="33.728001"
     cy="85.363998"
     r="15.414"
     transform="matrix(1.0917947,-0.2858168,0.2858168,1.0917947,-180.30817,13.494135)"
     style="fill:#1b1a1b"
     id="circle2341"
     sodipodi:cx="33.728001"
     sodipodi:cy="85.363998"
     sodipodi:rx="15.414"
     sodipodi:ry="15.414" /><path
     d="M -140.06215,48.935849 C -146.31997,49.541603 -150.90082,55.100456 -150.29507,61.358275 C -149.68817,67.620461 -144.12955,72.20487 -137.87064,71.59883 C -131.61373,70.985148 -127.02904,65.427621 -127.63726,59.169282 C -128.24543,52.915596 -133.80324,48.329809 -140.06215,48.935849 z "
     style="fill:#1b1a1b"
     id="path2343" /><path
     d="M -44.99294,91.339709 C -24.951831,58.018571 -49.224253,3.976963 -93.605885,9.4672202 C -133.70556,14.424496 -134.35249,56.632918 -99.012168,66.659664 C -68.429497,75.344341 -92.694028,94.742745 -91.984749,107.66168 C -91.271961,120.5762 -65.398322,125.26135 -44.99294,91.339709 z "
     style="fill:#bfbfbf"
     id="path2561" /><path
     d="M -86.84228,112.75985 C -88.056751,110.79004 -86.19955,108.60176 -84.290569,108.76815 C -81.251858,109.03428 -74.635637,108.73252 -69.415044,105.77341 C -56.372412,98.379694 -36.300952,62.803704 -46.395841,40.365295 C -50.915249,30.320886 -53.115898,27.444964 -57.770162,22.531645 C -58.719625,21.529587 -58.174556,21.584053 -57.531623,21.923221 C -55.014762,23.244092 -50.592026,28.36035 -46.055478,36.687677 C -38.390628,50.757116 -38.788117,67.483141 -41.638835,77.975343 C -43.624548,85.27439 -50.464117,101.78644 -60.480639,108.92577 C -70.5197,116.0815 -82.266433,120.18559 -86.84228,112.75985 z "
     style="fill:#000000"
     id="path2563" /><path
     d="M -95.930347,66.591355 C -102.76341,64.562985 -111.57238,61.738267 -116.66758,55.073789 C -120.42371,50.15984 -122.3305,44.796759 -122.81745,41.755703 C -122.99069,40.670602 -123.13785,39.765332 -122.82526,39.515509 C -122.68064,39.399486 -120.02045,45.412302 -116.04367,50.451645 C -112.06769,55.492366 -106.51047,58.440379 -101.88092,59.511496 C -97.763206,60.46345 -89.233623,62.555175 -86.347769,65.013729 C -83.380949,67.540918 -83.133309,73.00119 -84.131664,73.617197 C -85.138469,74.236583 -87.180025,69.187603 -95.930347,66.591355 z "
     style="fill:#000000"
     id="path2565" /><path
     d="M -81.840812,113.72311 C -81.972699,115.28707 -80.176315,115.59377 -77.75828,115.23141 C -74.658947,114.76654 -72.037923,114.41754 -68.470623,112.62971 C -63.63582,110.20674 -58.742752,106.74072 -55.159223,102.06476 C -44.467444,88.115271 -40.681354,71.610444 -41.264404,69.236185 C -41.459242,71.196944 -44.040349,81.489071 -49.943268,90.767882 C -57.52457,102.68631 -63.022197,109.03464 -75.701416,112.1124 C -79.230011,112.96964 -81.668137,111.66432 -81.840812,113.72311 z "
     style="fill:#ffffff"
     id="path2567" /><path
     d="M -109.96233,59.479354 C -108.51822,60.704238 -105.55938,62.336389 -99.737455,64.245644 C -92.705873,66.551032 -89.282274,68.550326 -87.848506,69.508429 C -86.329222,70.525809 -85.366279,72.795951 -85.27115,70.779631 C -85.17194,68.761076 -86.416123,67.025373 -89.192166,66.104839 C -91.070345,65.481234 -94.229847,63.996111 -97.258539,63.398373 C -99.204694,63.014221 -102.37098,62.251845 -105.08636,61.420426 C -106.57454,60.963046 -108.09089,60.161888 -109.96233,59.479354 z "
     style="fill:#ffffff"
     id="path2569" /><circle
     cx="34.681"
     cy="84.375"
     r="15.414"
     transform="matrix(1.0917947,-0.2858168,0.2858168,1.0917947,-180.30817,13.494135)"
     style="fill:#bfbfbf"
     id="circle2577"
     sodipodi:cx="34.681"
     sodipodi:cy="84.375"
     sodipodi:rx="15.414"
     sodipodi:ry="15.414" /><path
     d="M -128.68413,108.37945 C -115.15301,120.91784 -94.786007,103.69471 -103.75445,88.482597 C -104.76154,86.774656 -106.06907,85.474351 -105.63906,86.782721 C -102.77288,95.529828 -105.42141,102.44941 -110.3632,106.01451 C -115.20857,109.5112 -121.86847,110.09622 -127.20028,107.33186 C -128.76601,106.5203 -129.41538,107.70291 -128.68413,108.37945 z "
     style="fill:#000000"
     id="path2579" /><path
     d="M -118.06686,110.95477 C -116.34413,110.59244 -106.32442,107.99742 -103.97055,99.756195 C -103.23743,97.186709 -103.1058,97.702893 -103.31295,99.095232 C -104.37035,106.20143 -111.08741,111.44338 -116.80312,111.63773 C -117.963,111.75704 -119.48484,111.25131 -118.06686,110.95477 z "
     style="fill:#ffffff"
     id="path2585" /><path
     d="M -139.30435,47.583681 C -145.56216,48.189435 -150.14301,53.748288 -149.53726,60.006106 C -148.93065,66.2672 -143.37174,70.852702 -137.11392,70.246948 C -130.85592,69.632979 -126.27151,64.074361 -126.88083,57.816308 C -127.48791,51.562336 -133.04544,46.977641 -139.30435,47.583681 z "
     style="fill:#bfbfbf"
     id="path2589" /><path
     d="M -144.46878,67.571208 C -144.39939,68.375508 -143.29781,69.408789 -141.56718,69.883196 C -140.08038,70.290771 -136.24758,71.332594 -131.32372,68.224839 C -126.39986,65.117084 -125.8321,56.804464 -128.07041,54.35955 C -128.76326,53.121154 -129.66426,52.21957 -128.94737,54.195974 C -127.13695,59.186468 -130.65487,63.854586 -133.68917,66.0162 C -136.72238,68.177528 -140.56932,67.154692 -142.14014,66.675779 C -143.71095,66.196867 -144.53929,66.740369 -144.46878,67.571208 z "
     style="fill:#000000"
     id="path2591" /><path
     d="M -138.11472,68.687851 C -137.66344,68.281557 -135.37889,68.447629 -133.31622,67.338341 C -131.25464,66.229338 -128.80419,63.798254 -128.36692,60.343756 C -128.10933,58.315237 -128.03197,58.824631 -127.92942,59.929403 C -128.24939,65.67243 -133.53086,68.844638 -136.55132,69.263202 C -137.36636,69.376239 -138.8007,69.307247 -138.11472,68.687851 z "
     style="fill:#ffffff"
     id="path2597" /><path
     d="M -47.767489,69.693822 C -39.234739,45.099506 -57.090457,7.9576459 -93.212919,12.425552 C -125.85191,16.461012 -126.37823,50.814524 -97.613495,58.976486 C -65.031338,63.908526 -84.650966,88.487524 -87.434101,100.88229 C -89.929232,111.99304 -61.102889,113.82164 -47.767489,69.693822 z "
     style="fill:#999999"
     id="path2561_1_" /><path
     d="M -70.093288,88.904346 C -78.920045,87.812046 -91.622267,107.74061 -79.645446,105.40671 C -67.670523,103.07448 -91.622267,107.74061 -79.645446,105.40671 C -73.888849,104.55302 -69.119803,102.52058 -64.850547,97.64761 C -59.283982,91.295233 -50.968477,77.5735 -48.563483,68.707586 C -46.537563,61.232354 -47.555881,49.650767 -49.644305,60.532553 C -51.786232,71.700167 -61.266532,89.996647 -70.093288,88.904346 z "
     style="fill:#f3f3f3"
     id="path2571" /><path
     d="M -129.3854,104.84502 C -127.34184,104.87935 -126.10573,105.16706 -124.03635,106.61908 C -119.94568,108.31891 -112.42648,107.24179 -108.9543,102.67081 C -105.48212,98.099823 -105.36811,91.801741 -106.69103,87.996073 C -109.92728,78.682039 -123.67593,78.846722 -129.81795,86.579362 C -136.46216,95.2146 -131.42897,104.81069 -129.3854,104.84502 z "
     style="fill:#999999"
     id="path2581" /><path
     d="M -147.63565,61.683628 C -147.22833,62.966318 -146.18754,64.837882 -143.9897,65.149887 C -141.05481,65.566524 -140.45479,66.892551 -136.9892,66.204631 C -133.52361,65.516711 -130.89674,62.676625 -129.84557,59.535064 C -128.64212,55.188187 -130.44406,52.944024 -133.15599,50.940416 C -135.86791,48.936808 -141.83359,49.152263 -145.3938,52.39768 C -147.92393,54.702631 -148.62733,58.560726 -147.63565,61.683628 z "
     style="fill:#999999"
     id="path2593_2_" /><path
     d="M -136.11009,64.55822 C -133.44721,63.861113 -129.92545,60.232613 -131.67381,57.462279 C -133.83086,54.048798 -139.84051,56.970651 -140.04374,60.77103 C -140.24777,64.572786 -138.93238,65.297057 -136.11009,64.55822 z "
     style="fill:#f3f3f3"
     id="path256" /><path
     d="M -116.11512,105.50904 C -113.8431,104.91425 -106.88259,102.0818 -108.18994,91.962983 C -108.85161,86.83742 -111.64725,98.324328 -116.82409,100.04237 C -124.66721,102.64507 -123.78607,107.51719 -116.11512,105.50904 z "
     style="fill:#f3f3f3"
     id="path258" /></g>
</svg>
