<svg xmlns="http://www.w3.org/2000/svg" width="256" height="256" viewBox="0 0 100 100"><rect width="100" height="100" rx="20" fill="#000000"></rect><path fill="#fff" d="M36.58 59.92L36.58 59.92Q36.58 56.99 34.38 55.37Q32.17 53.75 26.68 52.58Q21.19 51.41 17.97 49.77Q14.75 48.13 13.20 45.86Q11.66 43.59 11.66 40.47L11.66 40.47Q11.66 35.27 16.05 31.68Q20.45 28.09 27.29 28.09L27.29 28.09Q34.47 28.09 38.95 31.80Q43.42 35.51 43.42 41.29L43.42 41.29L36.15 41.29Q36.15 38.32 33.63 36.17Q31.11 34.02 27.29 34.02L27.29 34.02Q23.34 34.02 21.11 35.74Q18.89 37.46 18.89 40.23L18.89 40.23Q18.89 42.85 20.96 44.18Q23.03 45.51 28.44 46.72Q33.85 47.93 37.21 49.61Q40.57 51.29 42.19 53.65Q43.81 56.02 43.81 59.41L43.81 59.41Q43.81 65.08 39.28 68.50Q34.75 71.91 27.52 71.91L27.52 71.91Q22.44 71.91 18.54 70.12Q14.63 68.32 12.42 65.10Q10.21 61.88 10.21 58.13L10.21 58.13L17.44 58.13Q17.64 61.76 20.35 63.89Q23.07 66.02 27.52 66.02L27.52 66.02Q31.62 66.02 34.10 64.36Q36.58 62.70 36.58 59.92ZM51.31 50.12L51.31 49.61Q51.31 43.40 53.75 38.44Q56.19 33.48 60.55 30.78Q64.90 28.09 70.49 28.09L70.49 28.09Q79.12 28.09 84.45 34.06Q89.79 40.04 89.79 49.96L89.79 49.96L89.79 50.47Q89.79 56.64 87.42 61.54Q85.06 66.45 80.66 69.18Q76.27 71.91 70.57 71.91L70.57 71.91Q61.97 71.91 56.64 65.94Q51.31 59.96 51.31 50.12L51.31 50.12ZM58.57 50.47L58.57 50.47Q58.57 57.50 61.84 61.76Q65.10 66.02 70.57 66.02L70.57 66.02Q76.07 66.02 79.32 61.70Q82.56 57.38 82.56 49.61L82.56 49.61Q82.56 42.66 79.26 38.34Q75.96 34.02 70.49 34.02L70.49 34.02Q65.14 34.02 61.86 38.28Q58.57 42.54 58.57 50.47Z"></path></svg>