<!-- https://iconduck.com/ -->
<!-- http://www.flaticon.com/ -->
<svg xmlns="http://www.w3.org/2000/svg">
  <symbol id="slideshow" viewBox="0 0 459 459"><path d="M178.5,127.5v204l127.5-102L178.5,127.5z M408,0H51C22.95,0,0,22.95,0,51v357c0,28.05,22.95,51,51,51h357 c28.05,0,51-22.95,51-51V51C459,22.95,436.05,0,408,0z M408,408H51V51h357V408z"/></symbol>
  <symbol id="rss" viewBox="0 0 405.338 405.338"><path fill="#FF8C00" d="M405.336,405.333h-86.848c0-175.612-142.874-318.477-318.485-318.477V0 C223.512,0,405.336,181.828,405.336,405.333z"/><path fill="#FF8C00" d="M256.053,405.333h-86.861c0-93.295-75.891-169.19-169.19-169.19v-86.852 C141.195,149.291,256.053,264.141,256.053,405.333z"/><circle fill="#FF8C00" cx="48.86" cy="356.48" r="48.858"/></symbol>
  <symbol id="star" viewBox="0 0 24 24"><path d="m23.363 8.584-7.378-1.127-3.307-7.044c-.247-.526-1.11-.526-1.357 0l-3.306 7.044-7.378 1.127c-.606.093-.848.83-.423 1.265l5.36 5.494-1.267 7.767c-.101.617.558 1.08 1.103.777l6.59-3.642 6.59 3.643c.54.3 1.205-.154 1.103-.777l-1.267-7.767 5.36-5.494c.425-.436.182-1.173-.423-1.266z" fill="#ffc107"/></symbol>
  <symbol id="twitter" viewBox="0 0 126.24 102.59"><path fill="#1B97F0" d="M40.58,115.3c47.64,0,73.69-39.47,73.69-73.69,0-1.12,0-2.24-.07-3.35a52.7,52.7,0,0,0,12.92-13.41,51.7,51.7,0,0,1-14.87,4.08A26,26,0,0,0,123.63,14.6a51.9,51.9,0,0,1-16.45,6.29A25.92,25.92,0,0,0,63.05,44.51,73.53,73.53,0,0,1,9.67,17.45a25.92,25.92,0,0,0,8,34.58A25.71,25.71,0,0,1,6,48.78c0,.11,0,.22,0,.33A25.91,25.91,0,0,0,26.73,74.5a25.86,25.86,0,0,1-11.7.44,25.93,25.93,0,0,0,24.2,18A52,52,0,0,1,7.06,104a52.72,52.72,0,0,1-6.18-.36,73.32,73.32,0,0,0,39.7,11.63" transform="translate(-0.88 -12.7)"/></symbol>
  <symbol id="github" viewBox="0 0 64 64"><path fill="#212121" d="M32 0 C14 0 0 14 0 32 0 53 19 62 22 62 24 62 24 61 24 60 L24 55 C17 57 14 53 13 50 13 50 13 49 11 47 10 46 6 44 10 44 13 44 15 48 15 48 18 52 22 51 24 50 24 48 26 46 26 46 18 45 12 42 12 31 12 27 13 24 15 22 15 22 13 18 15 13 15 13 20 13 24 17 27 15 37 15 40 17 44 13 49 13 49 13 51 20 49 22 49 22 51 24 52 27 52 31 52 42 45 45 38 46 39 47 40 49 40 52 L40 60 C40 61 40 62 42 62 45 62 64 53 64 32 64 14 50 0 32 0 Z" /></symbol>
  <symbol id="youtube" viewBox="0 0 24 24"><path d="m.522 17.874c.49 1.738 1.989 2.056 2.089 2.117 2.467.672 16.295.674 18.799 0 1.715-.496 2.03-2.017 2.089-2.117.653-3.474.696-8.003-.03-11.945l.03.196c-.49-1.738-1.989-2.056-2.089-2.117-2.434-.661-16.298-.686-18.799 0-1.715.497-2.03 2.017-2.089 2.117-.699 3.651-.734 7.84 0 11.749zm9.086-2.223v-7.293l6.266 3.652z" fill="#e53935"/></symbol>
  <symbol id="telegram" viewBox="0 0 24 24"><circle cx="12" cy="12" fill="#039be5" r="12"/><path d="m5.491 11.74 11.57-4.461c.537-.194 1.006.131.832.943l.001-.001-1.97 9.281c-.146.658-.537.818-1.084.508l-3-2.211-1.447 1.394c-.16.16-.295.295-.605.295l.213-3.053 5.56-5.023c.242-.213-.054-.333-.373-.121l-6.871 4.326-2.962-.924c-.643-.204-.657-.643.136-.953z" fill="#fff"/></symbol>
</svg>
