<!-- http://www.flaticon.com/ -->
<svg xmlns="http://www.w3.org/2000/svg">
  <symbol id="slideshow" viewBox="0 0 459 459"><path d="M178.5,127.5v204l127.5-102L178.5,127.5z M408,0H51C22.95,0,0,22.95,0,51v357c0,28.05,22.95,51,51,51h357 c28.05,0,51-22.95,51-51V51C459,22.95,436.05,0,408,0z M408,408H51V51h357V408z"/></symbol>
  <symbol id="rss" viewBox="0 0 405.338 405.338"><path fill="#FF8C00" d="M405.336,405.333h-86.848c0-175.612-142.874-318.477-318.485-318.477V0 C223.512,0,405.336,181.828,405.336,405.333z"/><path fill="#FF8C00" d="M256.053,405.333h-86.861c0-93.295-75.891-169.19-169.19-169.19v-86.852 C141.195,149.291,256.053,264.141,256.053,405.333z"/><circle fill="#FF8C00" cx="48.86" cy="356.48" r="48.858"/></symbol>
  <symbol id="star" viewBox="0 0 24 24"><path d="m23.363 8.584-7.378-1.127-3.307-7.044c-.247-.526-1.11-.526-1.357 0l-3.306 7.044-7.378 1.127c-.606.093-.848.83-.423 1.265l5.36 5.494-1.267 7.767c-.101.617.558 1.08 1.103.777l6.59-3.642 6.59 3.643c.54.3 1.205-.154 1.103-.777l-1.267-7.767 5.36-5.494c.425-.436.182-1.173-.423-1.266z" fill="#ffc107"/></symbol>>
  <symbol id="twitter" viewBox="0 0 512 512"><path fill="#03A9F4" d="M512,97.248c-19.04,8.352-39.328,13.888-60.48,16.576c21.76-12.992,38.368-33.408,46.176-58.016 c-20.288,12.096-42.688,20.64-66.56,25.408C411.872,60.704,384.416,48,354.464,48c-58.112,0-104.896,47.168-104.896,104.992 c0,8.32,0.704,16.32,2.432,23.936c-87.264-4.256-164.48-46.08-216.352-109.792c-9.056,15.712-14.368,33.696-14.368,53.056 c0,36.352,18.72,68.576,46.624,87.232c-16.864-0.32-33.408-5.216-47.424-12.928c0,0.32,0,0.736,0,1.152 c0,51.008,36.384,93.376,84.096,103.136c-8.544,2.336-17.856,3.456-27.52,3.456c-6.72,0-13.504-0.384-19.872-1.792 c13.6,41.568,52.192,72.128,98.08,73.12c-35.712,27.936-81.056,44.768-130.144,44.768c-8.608,0-16.864-0.384-25.12-1.44 C46.496,446.88,101.6,464,161.024,464c193.152,0,298.752-160,298.752-298.688c0-4.64-0.16-9.12-0.384-13.568 C480.224,136.96,497.728,118.496,512,97.248z"/></symbol>
  <symbol id="github" viewBox="0 0 24 24"><path d="m12 .5c-6.63 0-12 5.28-12 11.792 0 5.211 3.438 9.63 8.205 11.188.6.111.82-.254.82-.567 0-.28-.01-1.022-.015-2.005-3.338.711-4.042-1.582-4.042-1.582-.546-1.361-1.335-1.725-1.335-1.725-1.087-.731.084-.716.084-.716 1.205.082 1.838 1.215 1.838 1.215 1.07 1.803 2.809 1.282 3.495.981.108-.763.417-1.282.76-1.577-2.665-.295-5.466-1.309-5.466-5.827 0-1.287.465-2.339 1.235-3.164-.135-.298-.54-1.497.105-3.121 0 0 1.005-.316 3.3 1.209.96-.262 1.98-.392 3-.398 1.02.006 2.04.136 3 .398 2.28-1.525 3.285-1.209 3.285-1.209.645 1.624.24 2.823.12 3.121.765.825 1.23 1.877 1.23 3.164 0 4.53-2.805 5.527-5.475 5.817.42.354.81 1.077.81 2.182 0 1.578-.015 2.846-.015 3.229 0 .309.21.678.825.56 4.801-1.548 8.236-5.97 8.236-11.173 0-6.512-5.373-11.792-12-11.792z" fill="#212121"/></symbol>  
  <symbol id="youtube" viewBox="0 0 24 24"><path d="m.522 17.874c.49 1.738 1.989 2.056 2.089 2.117 2.467.672 16.295.674 18.799 0 1.715-.496 2.03-2.017 2.089-2.117.653-3.474.696-8.003-.03-11.945l.03.196c-.49-1.738-1.989-2.056-2.089-2.117-2.434-.661-16.298-.686-18.799 0-1.715.497-2.03 2.017-2.089 2.117-.699 3.651-.734 7.84 0 11.749zm9.086-2.223v-7.293l6.266 3.652z" fill="#e53935"/></symbol>>
</svg>
